<svg xmlns="http://www.w3.org/2000/svg" width="560" height="380" viewBox="0 0 560 380" font-family='system-ui,-apple-system,"Segoe UI",sans-serif' role="img" aria-label="ROC — prioritizer vs ClinVar">
<rect x="0.5" y="0.5" width="559" height="379" rx="10" fill="#fcfcfb" stroke="rgba(11,11,11,0.12)"/>
<text x="64" y="26" font-size="15" font-weight="600" fill="#0b0b0b">ROC — prioritizer vs ClinVar</text>
<text x="64" y="43" font-size="11.5" fill="#898781">demo · score=impact · AUC 0.840909</text>
<line x1="64" y1="324.0" x2="536" y2="324.0" stroke="#e1e0d9" stroke-width="1"/>
<text x="56" y="327.0" font-size="10.5" text-anchor="end" fill="#898781">0.00</text>
<text x="64.0" y="340" font-size="10.5" text-anchor="middle" fill="#898781">0.00</text>
<line x1="64" y1="256.0" x2="536" y2="256.0" stroke="#e1e0d9" stroke-width="1"/>
<text x="56" y="259.0" font-size="10.5" text-anchor="end" fill="#898781">0.25</text>
<text x="182.0" y="340" font-size="10.5" text-anchor="middle" fill="#898781">0.25</text>
<line x1="64" y1="188.0" x2="536" y2="188.0" stroke="#e1e0d9" stroke-width="1"/>
<text x="56" y="191.0" font-size="10.5" text-anchor="end" fill="#898781">0.50</text>
<text x="300.0" y="340" font-size="10.5" text-anchor="middle" fill="#898781">0.50</text>
<line x1="64" y1="120.0" x2="536" y2="120.0" stroke="#e1e0d9" stroke-width="1"/>
<text x="56" y="123.0" font-size="10.5" text-anchor="end" fill="#898781">0.75</text>
<text x="418.0" y="340" font-size="10.5" text-anchor="middle" fill="#898781">0.75</text>
<line x1="64" y1="52.0" x2="536" y2="52.0" stroke="#e1e0d9" stroke-width="1"/>
<text x="56" y="55.0" font-size="10.5" text-anchor="end" fill="#898781">1.00</text>
<text x="536.0" y="340" font-size="10.5" text-anchor="middle" fill="#898781">1.00</text>
<line x1="64" y1="52" x2="64" y2="324" stroke="#c3c2b7" stroke-width="1.5"/>
<line x1="64" y1="324" x2="536" y2="324" stroke="#c3c2b7" stroke-width="1.5"/>
<text x="300" y="366" font-size="12" text-anchor="middle" fill="#52514e">False positive rate</text>
<text x="18" y="188" font-size="12" text-anchor="middle" fill="#52514e" transform="rotate(-90 18 188)">True positive rate</text>
<line x1="64" y1="324" x2="536" y2="52" stroke="#898781" stroke-width="1" stroke-dasharray="4 4"/>
<polyline points="64.0,324.0 64.0,308.9 64.0,203.1 64.0,188.0 64.0,157.8 85.5,157.8 214.2,157.8 257.1,157.8 257.1,52.0 385.8,52.0 514.5,52.0 536.0,52.0 536.0,52.0" fill="none" stroke="#2a78d6" stroke-width="2" stroke-linejoin="round"/>
</svg>