<svg xmlns="http://www.w3.org/2000/svg" width="560" height="380" viewBox="0 0 560 380" font-family='system-ui,-apple-system,"Segoe UI",sans-serif' role="img" aria-label="Precision–Recall (QUAL sweep)">
<rect x="0.5" y="0.5" width="559" height="379" rx="10" fill="#fcfcfb" stroke="rgba(11,11,11,0.12)"/>
<text x="64" y="26" font-size="15" font-weight="600" fill="#0b0b0b">Precision–Recall (QUAL sweep)</text>
<text x="64" y="43" font-size="11.5" fill="#898781">HG-demo · builtin · 23 threshold(s)</text>
<line x1="64" y1="324.0" x2="536" y2="324.0" stroke="#e1e0d9" stroke-width="1"/>
<text x="56" y="327.0" font-size="10.5" text-anchor="end" fill="#898781">0.00</text>
<text x="64.0" y="340" font-size="10.5" text-anchor="middle" fill="#898781">0.00</text>
<line x1="64" y1="256.0" x2="536" y2="256.0" stroke="#e1e0d9" stroke-width="1"/>
<text x="56" y="259.0" font-size="10.5" text-anchor="end" fill="#898781">0.25</text>
<text x="182.0" y="340" font-size="10.5" text-anchor="middle" fill="#898781">0.25</text>
<line x1="64" y1="188.0" x2="536" y2="188.0" stroke="#e1e0d9" stroke-width="1"/>
<text x="56" y="191.0" font-size="10.5" text-anchor="end" fill="#898781">0.50</text>
<text x="300.0" y="340" font-size="10.5" text-anchor="middle" fill="#898781">0.50</text>
<line x1="64" y1="120.0" x2="536" y2="120.0" stroke="#e1e0d9" stroke-width="1"/>
<text x="56" y="123.0" font-size="10.5" text-anchor="end" fill="#898781">0.75</text>
<text x="418.0" y="340" font-size="10.5" text-anchor="middle" fill="#898781">0.75</text>
<line x1="64" y1="52.0" x2="536" y2="52.0" stroke="#e1e0d9" stroke-width="1"/>
<text x="56" y="55.0" font-size="10.5" text-anchor="end" fill="#898781">1.00</text>
<text x="536.0" y="340" font-size="10.5" text-anchor="middle" fill="#898781">1.00</text>
<line x1="64" y1="52" x2="64" y2="324" stroke="#c3c2b7" stroke-width="1.5"/>
<line x1="64" y1="324" x2="536" y2="324" stroke="#c3c2b7" stroke-width="1.5"/>
<text x="300" y="366" font-size="12" text-anchor="middle" fill="#52514e">Recall</text>
<text x="18" y="188" font-size="12" text-anchor="middle" fill="#52514e" transform="rotate(-90 18 188)">Precision</text>
<polyline points="85.5,52.0 106.9,52.0 128.4,52.0 149.8,52.0 171.3,52.0 192.7,52.0 214.2,52.0 235.6,52.0 257.1,52.0 278.5,52.0 300.0,52.0 321.5,52.0 342.9,52.0 364.4,52.0 385.8,84.0 385.8,69.0 385.8,52.0 407.3,94.9 407.3,82.2 428.7,92.8 450.2,90.9 471.6,89.1 471.6,89.1" fill="none" stroke="#2a78d6" stroke-width="2" stroke-linejoin="round"/>
<circle cx="85.5" cy="52.0" r="4" fill="#2a78d6" stroke="#fcfcfb" stroke-width="1.5"/>
<circle cx="106.9" cy="52.0" r="4" fill="#2a78d6" stroke="#fcfcfb" stroke-width="1.5"/>
<circle cx="128.4" cy="52.0" r="4" fill="#2a78d6" stroke="#fcfcfb" stroke-width="1.5"/>
<circle cx="149.8" cy="52.0" r="4" fill="#2a78d6" stroke="#fcfcfb" stroke-width="1.5"/>
<circle cx="171.3" cy="52.0" r="4" fill="#2a78d6" stroke="#fcfcfb" stroke-width="1.5"/>
<circle cx="192.7" cy="52.0" r="4" fill="#2a78d6" stroke="#fcfcfb" stroke-width="1.5"/>
<circle cx="214.2" cy="52.0" r="4" fill="#2a78d6" stroke="#fcfcfb" stroke-width="1.5"/>
<circle cx="235.6" cy="52.0" r="4" fill="#2a78d6" stroke="#fcfcfb" stroke-width="1.5"/>
<circle cx="257.1" cy="52.0" r="4" fill="#2a78d6" stroke="#fcfcfb" stroke-width="1.5"/>
<circle cx="278.5" cy="52.0" r="4" fill="#2a78d6" stroke="#fcfcfb" stroke-width="1.5"/>
<circle cx="300.0" cy="52.0" r="4" fill="#2a78d6" stroke="#fcfcfb" stroke-width="1.5"/>
<circle cx="321.5" cy="52.0" r="4" fill="#2a78d6" stroke="#fcfcfb" stroke-width="1.5"/>
<circle cx="342.9" cy="52.0" r="4" fill="#2a78d6" stroke="#fcfcfb" stroke-width="1.5"/>
<circle cx="364.4" cy="52.0" r="4" fill="#2a78d6" stroke="#fcfcfb" stroke-width="1.5"/>
<circle cx="385.8" cy="84.0" r="4" fill="#2a78d6" stroke="#fcfcfb" stroke-width="1.5"/>
<circle cx="385.8" cy="69.0" r="4" fill="#2a78d6" stroke="#fcfcfb" stroke-width="1.5"/>
<circle cx="385.8" cy="52.0" r="4" fill="#2a78d6" stroke="#fcfcfb" stroke-width="1.5"/>
<circle cx="407.3" cy="94.9" r="4" fill="#2a78d6" stroke="#fcfcfb" stroke-width="1.5"/>
<circle cx="407.3" cy="82.2" r="4" fill="#2a78d6" stroke="#fcfcfb" stroke-width="1.5"/>
<circle cx="428.7" cy="92.8" r="4" fill="#2a78d6" stroke="#fcfcfb" stroke-width="1.5"/>
<circle cx="450.2" cy="90.9" r="4" fill="#2a78d6" stroke="#fcfcfb" stroke-width="1.5"/>
<circle cx="471.6" cy="89.1" r="4" fill="#2a78d6" stroke="#fcfcfb" stroke-width="1.5"/>
<circle cx="471.6" cy="89.1" r="4" fill="#2a78d6" stroke="#fcfcfb" stroke-width="1.5"/>
<circle cx="471.6" cy="89.1" r="5.5" fill="none" stroke="#eb6834" stroke-width="2"/>
<text x="440.0" y="80.1" font-size="10.5" fill="#52514e">P 0.864 · R 0.864</text>
</svg>